<svg width="185" height="89" viewBox="0 0 185 89" fill="none" xmlns="http://www.w3.org/2000/svg">
<g filter="url(#filter0_i_124_2997)">
<rect width="176.239" height="50.2136" rx="25.1068" transform="matrix(0.973772 0.227525 -0.25505 0.966928 12.8069 0)" fill="black" fill-opacity="0.01"/>
<path d="M41.2814 29.4453L48.0518 19.4548L49.6798 19.8352L49.1458 21.8597L48.56 21.7228L43.3354 29.9252L41.2814 29.4453ZM43.9874 27.0862L44.8936 25.7021L49.9298 26.8788L50.043 28.5012L43.9874 27.0862ZM49.2313 31.3028L48.6893 21.7531L49.2233 19.7286L50.258 19.9703L51.2854 31.7828L49.2313 31.3028ZM53.2061 32.2316L56.2269 20.7795L58.1212 21.2221L55.1004 32.6742L53.2061 32.2316ZM57.7135 33.2847L60.7342 21.8327L62.6285 22.2753L59.6078 33.7273L57.7135 33.2847ZM65.731 38.0692L68.6322 27.0704L70.5265 27.513L70.1857 28.8048L70.3151 28.835C70.5456 28.5734 70.8105 28.3653 71.1097 28.2107C71.414 28.0572 71.7437 27.9605 72.0989 27.9205C72.454 27.8805 72.8269 27.9061 73.2174 27.9974C73.9122 28.1597 74.4674 28.4739 74.8829 28.9399C75.3035 29.4071 75.5689 29.9931 75.6791 30.6978C75.7958 31.3987 75.7392 32.1848 75.5094 33.056L75.5054 33.0711C75.2743 33.9474 74.9355 34.6702 74.4892 35.2396C74.0429 35.809 73.5178 36.2076 72.9139 36.4354C72.3164 36.6593 71.6677 36.6895 70.9678 36.526C70.5874 36.4371 70.2476 36.2963 69.9485 36.1034C69.6508 35.9055 69.4062 35.6693 69.2148 35.3946C69.0234 35.12 68.8933 34.817 68.8246 34.4855L68.6953 34.4552L67.6253 38.5118L65.731 38.0692ZM70.7928 34.801C71.2239 34.9017 71.6221 34.8825 71.9872 34.7432C72.3537 34.599 72.6731 34.3475 72.9454 33.9887C73.2191 33.6249 73.4283 33.1686 73.5731 32.6197L73.5771 32.6045C73.7245 32.0455 73.767 31.5476 73.7046 31.1106C73.6422 30.6736 73.4842 30.3133 73.2306 30.0295C72.9783 29.7406 72.6367 29.5458 72.2056 29.4451C71.7745 29.3444 71.3731 29.3656 71.0016 29.5086C70.6364 29.6479 70.3151 29.8963 70.0377 30.2538C69.7654 30.6126 69.5562 31.0689 69.4101 31.6229L69.4061 31.638C69.26 32.192 69.2175 32.69 69.2786 33.1319C69.3461 33.5701 69.5085 33.9342 69.7658 34.2242C70.0245 34.5092 70.3668 34.7014 70.7928 34.801ZM76.4848 37.6707L78.6626 29.4141L80.5569 29.8567L80.2222 31.1258L80.3515 31.156C80.6104 30.746 80.955 30.4603 81.3853 30.2988C81.8206 30.1386 82.3121 30.1224 82.8599 30.2504C83.0019 30.2836 83.1387 30.3262 83.2703 30.3784C83.4083 30.4267 83.5197 30.4741 83.6043 30.5206L83.16 32.2051C83.0171 32.1343 82.8691 32.073 82.7158 32.0212C82.569 31.9655 82.4119 31.9181 82.2445 31.879C81.8236 31.7806 81.4353 31.7728 81.0797 31.8554C80.724 31.9381 80.4215 32.1053 80.172 32.3571C79.9238 32.6038 79.7479 32.9236 79.6443 33.3165L78.3791 38.1133L76.4848 37.6707ZM86.4562 40.177C85.6295 39.9838 84.9621 39.6461 84.4539 39.1638C83.9471 38.6765 83.6158 38.0751 83.4599 37.3597C83.3091 36.6455 83.3512 35.8427 83.5864 34.9513L83.5903 34.9362C83.8228 34.0548 84.1857 33.3323 84.679 32.7686C85.1736 32.1998 85.7628 31.8135 86.4465 31.6097C87.1353 31.4071 87.893 31.4024 88.7197 31.5955C89.5464 31.7887 90.2113 32.1258 90.7144 32.6069C91.2225 33.0892 91.5545 33.688 91.7104 34.4035C91.8663 35.1189 91.8273 35.9198 91.5935 36.8061L91.5895 36.8212C91.3544 37.7126 90.9902 38.4402 90.4969 39.0039C90.0087 39.5689 89.4195 39.9552 88.7294 40.1628C88.0457 40.3666 87.2879 40.3713 86.4562 40.177ZM86.8587 38.6511C87.2948 38.753 87.6936 38.7312 88.0551 38.5858C88.4229 38.4365 88.7417 38.1768 89.0116 37.8068C89.2829 37.4318 89.4949 36.9547 89.6476 36.3755L89.6516 36.3604C89.8057 35.7762 89.8554 35.2612 89.8007 34.8154C89.7473 34.3645 89.5945 33.9946 89.3423 33.7058C89.0964 33.4131 88.7554 33.2158 88.3192 33.1139C87.8831 33.012 87.4811 33.0357 87.1132 33.185C86.7467 33.3292 86.4279 33.5889 86.1567 33.9639C85.8868 34.3339 85.6748 34.811 85.5207 35.3952L85.5167 35.4103C85.3639 35.9895 85.3142 36.5045 85.3676 36.9554C85.421 37.4062 85.5712 37.7755 85.8184 38.0632C86.0707 38.352 86.4174 38.548 86.8587 38.6511ZM96.0834 42.4264C95.2466 42.2309 94.5766 41.8926 94.0736 41.4115C93.5705 40.9304 93.2468 40.3308 93.1024 39.6127C92.9579 38.8946 93.004 38.0874 93.2404 37.1909L93.2444 37.1758C93.4795 36.2844 93.838 35.5582 94.3198 34.9971C94.8016 34.4361 95.3838 34.0561 96.0662 33.8574C96.7499 33.6536 97.5076 33.6488 98.3394 33.8432C99.0545 34.0103 99.6356 34.277 100.083 34.6435C100.536 35.0061 100.856 35.4389 101.041 35.9419C101.232 36.4411 101.287 36.986 101.207 37.5767L101.199 37.607L99.4113 37.1892L99.4097 37.1648C99.4297 36.7418 99.3189 36.3657 99.0773 36.0366C98.8407 35.7086 98.4638 35.4842 97.9465 35.3633C97.5154 35.2626 97.1166 35.2844 96.7501 35.4286C96.3887 35.5741 96.073 35.8318 95.8031 36.2018C95.5332 36.5718 95.3219 37.0464 95.1691 37.6255L95.1651 37.6407C95.011 38.2248 94.96 38.7449 95.0121 39.2008C95.0705 39.6529 95.2226 40.0253 95.4685 40.3179C95.7157 40.6056 96.0548 40.7998 96.4859 40.9005C96.9779 41.0155 97.4027 40.9971 97.7604 40.8454C98.1231 40.6949 98.42 40.4168 98.6508 40.0109L98.674 39.9843L100.456 40.3927L100.431 40.4589C100.192 40.9965 99.8646 41.4413 99.4487 41.7933C99.0379 42.1464 98.5502 42.3826 97.9857 42.502C97.4225 42.6164 96.7884 42.5912 96.0834 42.4264ZM105.224 44.5621C104.397 44.369 103.733 44.0293 103.231 43.5432C102.734 43.0582 102.411 42.4586 102.26 41.7444C102.109 41.0302 102.149 40.2349 102.38 39.3586L102.382 39.3511C102.611 38.4849 102.967 37.7662 103.452 37.195C103.941 36.6251 104.524 36.232 105.201 36.0157C105.878 35.7944 106.61 35.7756 107.396 35.9593C108.187 36.1442 108.821 36.4767 109.297 36.9569C109.78 37.4333 110.095 38.0173 110.241 38.7091C110.387 39.4008 110.35 40.1621 110.131 40.9931L109.967 41.6125L103.212 40.0341L103.545 38.7725L109.372 40.1341L108.163 41.1028L108.361 40.3549C108.506 39.806 108.542 39.3307 108.47 38.929C108.399 38.5273 108.237 38.2008 107.986 37.9496C107.739 37.6996 107.421 37.5289 107.03 37.4377C106.64 37.3464 106.267 37.361 105.912 37.4812C105.564 37.5976 105.253 37.8189 104.978 38.1451C104.71 38.4674 104.506 38.8929 104.367 39.4217L104.167 40.1772C104.033 40.6858 104.005 41.1416 104.081 41.5445C104.16 41.9423 104.33 42.2762 104.593 42.546C104.862 42.8121 105.214 42.996 105.65 43.098C105.99 43.1774 106.294 43.1977 106.563 43.1588C106.838 43.1162 107.07 43.0447 107.258 42.9442C107.447 42.8388 107.589 42.7302 107.683 42.6185L107.72 42.571L109.515 42.9905L109.482 43.0549C109.346 43.3064 109.152 43.5499 108.902 43.7854C108.657 44.0171 108.354 44.2163 107.993 44.3831C107.638 44.546 107.228 44.6507 106.763 44.6972C106.3 44.7387 105.787 44.6937 105.224 44.5621ZM114.151 46.648C113.446 46.4833 112.863 46.2429 112.403 45.9268C111.949 45.6069 111.621 45.2363 111.42 44.815C111.22 44.3887 111.154 43.9349 111.222 43.4535L111.226 43.4384L113.105 43.8774L113.109 43.8943C113.134 44.2051 113.263 44.4837 113.494 44.7302C113.725 44.9766 114.077 45.155 114.548 45.2652C114.863 45.3387 115.15 45.3604 115.411 45.3305C115.674 45.2956 115.894 45.216 116.072 45.0919C116.25 44.9678 116.366 44.8025 116.421 44.596L116.425 44.5809C116.489 44.3392 116.443 44.1146 116.287 43.9072C116.134 43.6948 115.842 43.4849 115.412 43.2776L114.145 42.6608C113.648 42.4217 113.254 42.1586 112.964 41.8716C112.673 41.5845 112.482 41.2698 112.389 40.9273C112.302 40.586 112.311 40.214 112.417 39.8111L112.419 39.8035C112.551 39.3049 112.806 38.8994 113.184 38.5869C113.568 38.2755 114.039 38.0727 114.597 37.9785C115.154 37.8843 115.76 37.9137 116.415 38.0666C117.089 38.2242 117.643 38.4606 118.077 38.7758C118.511 39.091 118.818 39.4568 118.999 39.8734C119.18 40.2899 119.232 40.727 119.154 41.1847L119.15 41.1998L117.37 40.7838L117.368 40.7594C117.366 40.4809 117.255 40.2196 117.034 39.9755C116.819 39.7276 116.489 39.5515 116.042 39.4472C115.764 39.382 115.501 39.3661 115.255 39.3996C115.015 39.4343 114.81 39.5149 114.642 39.6413C114.481 39.764 114.373 39.9285 114.318 40.135L114.316 40.1426C114.274 40.3037 114.277 40.4542 114.327 40.5941C114.381 40.7351 114.487 40.8722 114.646 41.0055C114.805 41.1388 115.024 41.2757 115.305 41.4161L116.574 42.0254C117.343 42.3975 117.875 42.8079 118.171 43.2567C118.468 43.7055 118.536 44.2321 118.376 44.8364L118.373 44.8515C118.234 45.3753 117.961 45.798 117.553 46.1197C117.145 46.4414 116.646 46.6509 116.055 46.748C115.465 46.8402 114.831 46.8068 114.151 46.648ZM122.736 48.654C122.031 48.4892 121.449 48.2488 120.988 47.9327C120.534 47.6128 120.206 47.2422 120.005 46.8209C119.805 46.3946 119.739 45.9408 119.807 45.4594L119.811 45.4443L121.69 45.8833L121.694 45.9002C121.72 46.211 121.848 46.4896 122.079 46.7361C122.31 46.9826 122.662 47.1609 123.133 47.2711C123.448 47.3446 123.735 47.3664 123.996 47.3364C124.259 47.3015 124.479 47.2219 124.657 47.0978C124.835 46.9737 124.951 46.8084 125.006 46.6019L125.01 46.5868C125.074 46.3451 125.028 46.1205 124.873 45.9132C124.719 45.7008 124.427 45.4909 123.997 45.2835L122.73 44.6667C122.233 44.4276 121.839 44.1646 121.549 43.8775C121.258 43.5904 121.067 43.2757 120.974 42.9332C120.887 42.592 120.896 42.2199 121.002 41.817L121.004 41.8094C121.136 41.3109 121.391 40.9053 121.769 40.5928C122.153 40.2814 122.624 40.0787 123.182 39.9845C123.739 39.8903 124.345 39.9196 125 40.0725C125.674 40.2301 126.228 40.4665 126.662 40.7817C127.096 41.0969 127.403 41.4628 127.584 41.8793C127.765 42.2958 127.817 42.7329 127.739 43.1906L127.735 43.2057L125.955 42.7898L125.953 42.7653C125.951 42.4868 125.84 42.2256 125.619 41.9815C125.404 41.7335 125.074 41.5574 124.627 41.4531C124.349 41.3879 124.086 41.3721 123.84 41.4055C123.6 41.4402 123.395 41.5208 123.228 41.6473C123.066 41.7699 122.958 41.9345 122.903 42.1409L122.901 42.1485C122.859 42.3097 122.862 42.4601 122.912 42.6C122.966 42.741 123.072 42.8781 123.231 43.0115C123.39 43.1448 123.609 43.2816 123.89 43.4221L125.159 44.0313C125.928 44.4034 126.46 44.8138 126.756 45.2626C127.053 45.7114 127.121 46.238 126.962 46.8423L126.958 46.8575C126.819 47.3812 126.546 47.8039 126.138 48.1257C125.731 48.4474 125.231 48.6568 124.64 48.754C124.05 48.8461 123.416 48.8128 122.736 48.654ZM131.892 50.7932C131.065 50.6 130.401 50.2604 129.899 49.7742C129.402 49.2893 129.079 48.6897 128.928 47.9755C128.777 47.2612 128.817 46.466 129.048 45.5897L129.05 45.5821C129.279 44.7159 129.635 43.9972 130.12 43.4261C130.609 42.8561 131.192 42.463 131.869 42.2468C132.546 42.0255 133.278 42.0067 134.064 42.1904C134.855 42.3752 135.489 42.7078 135.965 43.188C136.448 43.6644 136.763 44.2484 136.909 44.9401C137.055 45.6318 137.018 46.3932 136.799 47.2241L136.635 47.8436L129.88 46.2651L130.213 45.0036L136.04 46.3652L134.831 47.3339L135.029 46.586C135.173 46.0371 135.21 45.5618 135.138 45.1601C135.067 44.7584 134.905 44.4319 134.654 44.1807C134.407 43.9307 134.089 43.76 133.698 43.6688C133.308 43.5775 132.935 43.592 132.58 43.7123C132.232 43.8287 131.921 44.05 131.646 44.3762C131.378 44.6985 131.174 45.124 131.035 45.6528L130.835 46.4082C130.701 46.9169 130.673 47.3726 130.749 47.7755C130.828 48.1734 130.998 48.5072 131.261 48.7771C131.53 49.0431 131.882 49.2271 132.318 49.329C132.658 49.4084 132.962 49.4287 133.231 49.3899C133.506 49.3473 133.738 49.2757 133.926 49.1753C134.115 49.0698 134.257 48.9613 134.351 48.8496L134.388 48.802L136.183 49.2215L136.15 49.286C136.014 49.5375 135.82 49.781 135.57 50.0165C135.325 50.2482 135.022 50.4474 134.661 50.6142C134.305 50.7771 133.896 50.8818 133.431 50.9283C132.968 50.9698 132.455 50.9247 131.892 50.7932ZM140.683 52.8151C139.993 52.6539 139.437 52.3423 139.015 51.8802C138.594 51.413 138.329 50.827 138.219 50.1222C138.109 49.4175 138.168 48.632 138.396 47.7658L138.4 47.7507C138.631 46.8744 138.967 46.151 139.409 45.5804C139.856 45.006 140.379 44.6069 140.976 44.3829C141.58 44.1551 142.232 44.123 142.932 44.2865C143.313 44.3754 143.652 44.5188 143.949 44.7167C144.249 44.9095 144.494 45.1433 144.685 45.4179C144.882 45.6937 145.012 45.9967 145.075 46.327L145.212 46.359L146.402 41.8492L148.289 42.2901L145.268 53.7421L143.381 53.3013L143.722 52.0095L143.585 51.9775C143.354 52.2391 143.086 52.4491 142.781 52.6076C142.481 52.7623 142.154 52.8596 141.799 52.8996C141.445 52.9345 141.073 52.9064 140.683 52.8151ZM141.694 51.3674C142.125 51.4681 142.524 51.4489 142.889 51.3096C143.26 51.1666 143.582 50.9157 143.855 50.5569C144.133 50.1943 144.345 49.7385 144.49 49.1896L144.494 49.1745C144.64 48.6205 144.679 48.1245 144.612 47.6863C144.549 47.2494 144.389 46.8859 144.132 46.5959C143.88 46.307 143.538 46.1122 143.107 46.0115C142.681 45.912 142.282 45.9337 141.911 46.0768C141.546 46.2161 141.226 46.4676 140.953 46.8313C140.68 47.1901 140.471 47.6464 140.325 48.2004L140.321 48.2155C140.175 48.7695 140.133 49.265 140.195 49.7019C140.258 50.1389 140.415 50.5018 140.667 50.7906C140.921 51.0744 141.263 51.2667 141.694 51.3674ZM26.4772 46.3483L29.3784 35.3495L31.2727 35.7921L30.932 37.0838L31.0613 37.1141C31.2918 36.8525 31.5567 36.6444 31.8559 36.4897C32.1602 36.3363 32.49 36.2396 32.8451 36.1996C33.2002 36.1596 33.5731 36.1852 33.9636 36.2765C34.6584 36.4388 35.2136 36.753 35.6291 37.219C36.0497 37.6862 36.3151 38.2721 36.4254 38.9769C36.542 39.6778 36.4854 40.4639 36.2556 41.3351L36.2516 41.3502C36.0205 42.2265 35.6817 42.9493 35.2354 43.5187C34.7891 44.0881 34.264 44.4866 33.6601 44.7144C33.0626 44.9384 32.4139 44.9686 31.714 44.8051C31.3336 44.7162 30.9939 44.5753 30.6948 44.3825C30.397 44.1846 30.1524 43.9483 29.961 43.6737C29.7696 43.3991 29.6395 43.096 29.5708 42.7645L29.4415 42.7343L28.3715 46.7909L26.4772 46.3483ZM31.539 43.0801C31.9701 43.1808 32.3683 43.1615 32.7334 43.0223C33.0999 42.878 33.4193 42.6265 33.6916 42.2678C33.9653 41.904 34.1745 41.4477 34.3193 40.8987L34.3233 40.8836C34.4707 40.3246 34.5132 39.8266 34.4508 39.3897C34.3884 38.9527 34.2304 38.5923 33.9768 38.3085C33.7245 38.0197 33.3829 37.8249 32.9518 37.7242C32.5207 37.6235 32.1193 37.6446 31.7478 37.7877C31.3826 37.9269 31.0613 38.1753 30.784 38.5329C30.5116 38.8916 30.3024 39.348 30.1563 39.902L30.1523 39.9171C30.0062 40.471 29.9637 40.969 30.0248 41.411C30.0923 41.8492 30.2547 42.2132 30.512 42.5033C30.7707 42.7883 31.113 42.9805 31.539 43.0801ZM37.231 45.9498L39.4089 37.6931L41.3031 38.1357L40.9684 39.4048L41.0977 39.435C41.3566 39.025 41.7012 38.7393 42.1315 38.5779C42.5668 38.4176 43.0583 38.4015 43.6061 38.5295C43.7481 38.5626 43.8849 38.6053 44.0165 38.6574C44.1545 38.7057 44.2659 38.7531 44.3505 38.7996L43.9062 40.4842C43.7633 40.4134 43.6153 40.3521 43.4621 40.3002C43.3152 40.2445 43.1581 40.1971 42.9907 40.158C42.5698 40.0597 42.1815 40.0518 41.8259 40.1345C41.4702 40.2171 41.1677 40.3843 40.9182 40.6362C40.67 40.8829 40.4942 41.2027 40.3905 41.5955L39.1253 46.3924L37.231 45.9498ZM43.8761 47.5024L46.0539 39.2458L47.9406 39.6866L45.7627 47.9433L43.8761 47.5024ZM47.3695 38.0856C47.0602 38.0133 46.8224 37.8428 46.6564 37.5741C46.4904 37.3054 46.4472 37.02 46.5269 36.7178C46.6093 36.4056 46.7899 36.1698 47.0689 36.0104C47.3492 35.846 47.644 35.7999 47.9534 35.8722C48.2627 35.9445 48.4979 36.1144 48.6589 36.3819C48.8262 36.6455 48.8687 36.9335 48.7864 37.2457C48.7067 37.5479 48.5267 37.7812 48.2464 37.9456C47.9712 38.1112 47.6789 38.1578 47.3695 38.0856ZM50.4907 49.048L49.7092 40.0998L51.7329 40.5727L51.9563 47.4416L52.0932 47.4736L55.6964 41.4988L57.6896 41.9645L52.56 49.5315L50.4907 49.048ZM59.2224 51.2325C58.7001 51.1105 58.2575 50.9001 57.8947 50.6015C57.5371 50.3041 57.2875 49.9437 57.1461 49.5204C57.0111 49.0932 57.01 48.6278 57.1429 48.1242L57.1469 48.1091C57.2757 47.6206 57.5084 47.2285 57.8448 46.9329C58.1826 46.6322 58.6138 46.4362 59.1386 46.345C59.6634 46.2538 60.2678 46.2693 60.9516 46.3917L64.0749 46.9209L63.7481 48.1598L60.8931 47.6852C60.3526 47.591 59.9303 47.6099 59.6262 47.7421C59.3222 47.8742 59.125 48.1115 59.0346 48.4539L59.0307 48.469C58.9377 48.8216 58.9997 49.1274 59.2167 49.3866C59.4387 49.647 59.7602 49.8264 60.1812 49.9248C60.5616 50.0137 60.9213 50.0175 61.2604 49.9363C61.5995 49.8552 61.8891 49.7063 62.1293 49.4898C62.3708 49.2682 62.5347 48.9937 62.6211 48.6664L63.3105 46.0526C63.4194 45.6397 63.3706 45.2941 63.164 45.016C62.9587 44.7327 62.5974 44.5307 62.0801 44.4098C61.649 44.3091 61.2766 44.3023 60.9629 44.3894C60.6505 44.4714 60.4102 44.6372 60.2421 44.8866L60.2266 44.915L58.4388 44.4973L58.4643 44.4311C58.6474 43.982 58.9369 43.6193 59.3329 43.3429C59.7288 43.0665 60.2031 42.8913 60.7557 42.8172C61.3083 42.7432 61.9117 42.7826 62.5659 42.9354C63.2861 43.1037 63.8655 43.3567 64.3041 43.6944C64.744 44.0271 65.0381 44.4327 65.1865 44.9111C65.3363 45.3845 65.3348 45.9108 65.182 46.4899L63.6935 52.1329L61.8221 51.6956L62.121 50.5625L61.9916 50.5322C61.7704 50.7586 61.5128 50.939 61.2189 51.0735C60.93 51.2091 60.6177 51.2912 60.2817 51.3196C59.9458 51.3481 59.5927 51.319 59.2224 51.2325ZM69.3853 53.5029C68.4318 53.2801 67.7904 52.9458 67.4611 52.4999C67.1318 52.0541 67.0715 51.4358 67.28 50.6451L68.4955 46.0371L67.2022 45.7349L67.5868 44.277L68.8801 44.5792L69.4141 42.5547L71.3388 43.0044L70.8048 45.0289L72.5545 45.4377L72.17 46.8957L70.4202 46.4868L69.3223 50.6492C69.2147 51.0571 69.2219 51.3769 69.3439 51.6085C69.4722 51.8364 69.7317 51.9959 70.1222 52.0871C70.2591 52.1191 70.3714 52.1427 70.4589 52.1578C70.5529 52.169 70.6569 52.1827 70.7712 52.1987L70.3886 53.6491C70.2501 53.6434 70.0926 53.628 69.9162 53.6028C69.7449 53.5788 69.5679 53.5455 69.3853 53.5029ZM75.8672 55.1537C75.0405 54.9605 74.3763 54.6209 73.8746 54.1348C73.3779 53.6498 73.0541 53.0502 72.9033 52.336C72.7525 51.6217 72.7927 50.8265 73.0238 49.9502L73.0258 49.9426C73.2543 49.0764 73.6108 48.3578 74.0953 47.7866C74.5848 47.2167 75.1677 46.8235 75.8439 46.6073C76.5215 46.386 77.2533 46.3672 78.0395 46.5509C78.8307 46.7358 79.4644 47.0683 79.9408 47.5485C80.4236 48.0249 80.738 48.6089 80.884 49.3006C81.0299 49.9924 80.9933 50.7537 80.7742 51.5847L80.6108 52.2041L73.8552 50.6256L74.188 49.3641L80.0154 50.7257L78.8069 51.6944L79.0041 50.9465C79.1489 50.3976 79.1855 49.9223 79.1137 49.5206C79.042 49.1189 78.8804 48.7924 78.629 48.5412C78.3827 48.2912 78.0643 48.1205 77.6737 48.0293C77.2832 47.938 76.9106 47.9525 76.5558 48.0728C76.2074 48.1892 75.896 48.4105 75.6215 48.7367C75.3534 49.059 75.1496 49.4845 75.0101 50.0133L74.8109 50.7687C74.6767 51.2774 74.648 51.7331 74.7248 52.136C74.8029 52.5339 74.9733 52.8678 75.236 53.1376C75.505 53.4037 75.8576 53.5876 76.2938 53.6895C76.6336 53.7689 76.9378 53.7892 77.2065 53.7504C77.4816 53.7078 77.7131 53.6362 77.9012 53.5358C78.0905 53.4304 78.2322 53.3218 78.3263 53.2101L78.3631 53.1626L80.1585 53.5821L80.1253 53.6465C79.989 53.898 79.7955 54.1415 79.5449 54.377C79.3008 54.6087 78.9978 54.8079 78.6362 54.9747C78.2809 55.1376 77.871 55.2423 77.4065 55.2888C76.9432 55.3303 76.4302 55.2852 75.8672 55.1537ZM81.7725 56.3571L84.7933 44.905L86.6876 45.3476L83.6668 56.7997L81.7725 56.3571ZM86.3287 60.5012C86.2121 60.474 86.091 60.443 85.9656 60.4083C85.8452 60.3749 85.728 60.3395 85.614 60.3021L85.9946 58.8593C86.068 58.8871 86.1554 58.9129 86.2568 58.9366C86.357 58.9654 86.4552 58.991 86.5516 59.0135C86.9421 59.1047 87.2766 59.092 87.555 58.9753C87.8372 58.8648 88.0782 58.6351 88.2779 58.2861L88.4765 57.9315L87.6818 48.9723L89.751 49.4558L90.0132 57.2801L89.7231 56.298L90.3773 56.4509L89.6481 57.1948L93.7679 50.3943L95.761 50.86L90.5532 58.6012C90.1341 59.2304 89.7175 59.7078 89.3031 60.0333C88.8888 60.3589 88.4417 60.5538 87.9617 60.6181C87.4867 60.6836 86.9424 60.6446 86.3287 60.5012ZM93.2461 62.0934L95.1055 57.708L97.053 58.1631L94.5394 62.3956L93.2461 62.0934ZM107.396 62.5206C106.569 62.3274 105.902 61.9897 105.394 61.5074C104.887 61.0201 104.556 60.4187 104.4 59.7033C104.249 58.989 104.291 58.1862 104.526 57.2948L104.53 57.2797C104.763 56.3984 105.126 55.6759 105.619 55.1121C106.114 54.5434 106.703 54.1571 107.386 53.9533C108.075 53.7506 108.833 53.7459 109.66 53.9391C110.486 54.1322 111.151 54.4694 111.654 54.9505C112.162 55.4327 112.494 56.0316 112.65 56.747C112.806 57.4625 112.767 58.2633 112.533 59.1497L112.529 59.1648C112.294 60.0562 111.93 60.7837 111.437 61.3475C110.949 61.9124 110.359 62.2987 109.669 62.5064C108.986 62.7102 108.228 62.7149 107.396 62.5206ZM107.799 60.9946C108.235 61.0965 108.634 61.0748 108.995 60.9293C109.363 60.78 109.682 60.5204 109.952 60.1504C110.223 59.7753 110.435 59.2982 110.588 58.7191L110.592 58.704C110.746 58.1198 110.795 57.6048 110.741 57.1589C110.687 56.708 110.534 56.3382 110.282 56.0493C110.036 55.7567 109.695 55.5594 109.259 55.4574C108.823 55.3555 108.421 55.3792 108.053 55.5285C107.687 55.6728 107.368 55.9324 107.097 56.3075C106.827 56.6775 106.615 57.1546 106.461 57.7388L106.457 57.7539C106.304 58.333 106.254 58.848 106.308 59.2989C106.361 59.7498 106.511 60.1191 106.758 60.4067C107.011 60.6956 107.357 60.8915 107.799 60.9946ZM114.108 63.9123L115.901 57.1136L114.539 56.7954L114.924 55.3375L116.286 55.6557L116.501 54.8398C116.647 54.2859 116.862 53.8495 117.145 53.5308C117.433 53.2132 117.801 53.0131 118.248 52.9304C118.697 52.8428 119.228 52.8706 119.842 53.014C120.044 53.0614 120.23 53.1128 120.399 53.1682C120.568 53.2186 120.723 53.2735 120.864 53.3331L120.517 54.6475C120.449 54.6208 120.36 54.5919 120.249 54.5608C120.14 54.5247 120.02 54.4912 119.888 54.4604C119.442 54.3561 119.098 54.3853 118.855 54.5479C118.615 54.7055 118.442 54.9832 118.337 55.3811L118.15 56.0912L119.953 56.5125L119.568 57.9704L117.795 57.5562L116.002 64.3549L114.108 63.9123ZM120.411 65.385L122.204 58.5863L120.842 58.2681L121.227 56.8102L122.588 57.1283L122.804 56.3125C122.95 55.7585 123.165 55.3222 123.448 55.0034C123.736 54.6858 124.104 54.4857 124.551 54.4031C125 54.3154 125.531 54.3433 126.144 54.4867C126.347 54.5341 126.533 54.5855 126.701 54.6409C126.871 54.6912 127.026 54.7462 127.167 54.8057L126.82 56.1201C126.752 56.0935 126.662 56.0646 126.552 56.0335C126.443 55.9973 126.323 55.9639 126.191 55.9331C125.745 55.8288 125.4 55.8579 125.158 56.0206C124.917 56.1782 124.745 56.4559 124.64 56.8538L124.452 57.5638L126.255 57.9851L125.871 59.4431L124.098 59.0289L122.305 65.8276L120.411 65.385ZM126.135 66.7226L129.156 55.2705L131.05 55.7131L128.029 67.1652L126.135 66.7226ZM130.589 67.7633L132.767 59.5066L134.654 59.9475L132.476 68.2041L130.589 67.7633ZM134.083 58.3464C133.773 58.2741 133.536 58.1036 133.37 57.8349C133.204 57.5662 133.16 57.2808 133.24 56.9787C133.322 56.6664 133.503 56.4306 133.782 56.2712C134.062 56.1068 134.357 56.0608 134.667 56.1331C134.976 56.2053 135.211 56.3752 135.372 56.6427C135.539 56.9064 135.582 57.1943 135.5 57.5066C135.42 57.8087 135.24 58.042 134.96 58.2064C134.684 58.372 134.392 58.4187 134.083 58.3464ZM134.967 68.7862L137.145 60.5296L139.039 60.9722L138.705 62.2413L138.834 62.2715C139.15 61.8695 139.542 61.5894 140.009 61.4312C140.476 61.273 141.009 61.2638 141.607 61.4037C142.535 61.6205 143.175 62.0534 143.526 62.7021C143.877 63.3509 143.923 64.1663 143.664 65.1483L142.255 70.4891L140.361 70.0465L141.654 65.1439C141.824 64.4993 141.815 63.9838 141.626 63.5975C141.442 63.2124 141.064 62.9529 140.491 62.819C140.115 62.7313 139.769 62.7385 139.451 62.8407C139.133 62.9429 138.861 63.1279 138.634 63.3957C138.408 63.6635 138.24 64.0039 138.131 64.4169L136.862 69.2288L134.967 68.7862ZM148.164 72.0462C147.338 71.853 146.673 71.5134 146.172 71.0272C145.675 70.5423 145.351 69.9427 145.2 69.2285C145.05 68.5142 145.09 67.719 145.321 66.8427L145.323 66.8351C145.551 65.9689 145.908 65.2502 146.392 64.6791C146.882 64.1091 147.465 63.716 148.141 63.4998C148.819 63.2785 149.55 63.2597 150.337 63.4434C151.128 63.6282 151.762 63.9608 152.238 64.441C152.721 64.9173 153.035 65.5014 153.181 66.1931C153.327 66.8848 153.29 67.6462 153.071 68.4771L152.908 69.0966L146.152 67.5181L146.485 66.2566L152.312 67.6182L151.104 68.5869L151.301 67.839C151.446 67.2901 151.483 66.8148 151.411 66.4131C151.339 66.0113 151.178 65.6849 150.926 65.4337C150.68 65.1836 150.361 65.013 149.971 64.9218C149.58 64.8305 149.208 64.845 148.853 64.9653C148.504 65.0817 148.193 65.303 147.919 65.6292C147.65 65.9515 147.447 66.377 147.307 66.9058L147.108 67.6612C146.974 68.1699 146.945 68.6256 147.022 69.0285C147.1 69.4264 147.27 69.7602 147.533 70.0301C147.802 70.2961 148.155 70.4801 148.591 70.582C148.931 70.6614 149.235 70.6817 149.504 70.6429C149.779 70.6003 150.01 70.5287 150.198 70.4283C150.388 70.3228 150.529 70.2143 150.623 70.1026L150.66 70.055L152.456 70.4745L152.422 70.539C152.286 70.7905 152.093 71.034 151.842 71.2695C151.598 71.5011 151.295 71.7004 150.933 71.8671C150.578 72.0301 150.168 72.1348 149.704 72.1813C149.24 72.2228 148.727 72.1777 148.164 72.0462Z" fill="white"/>
</g>
<defs>
<filter id="filter0_i_124_2997" x="0.000306545" y="0" width="184.423" height="92.6516" filterUnits="userSpaceOnUse" color-interpolation-filters="sRGB">
<feFlood flood-opacity="0" result="BackgroundImageFix"/>
<feBlend mode="normal" in="SourceGraphic" in2="BackgroundImageFix" result="shape"/>
<feColorMatrix in="SourceAlpha" type="matrix" values="0 0 0 0 0 0 0 0 0 0 0 0 0 0 0 0 0 0 127 0" result="hardAlpha"/>
<feOffset dy="4"/>
<feGaussianBlur stdDeviation="10.2"/>
<feComposite in2="hardAlpha" operator="arithmetic" k2="-1" k3="1"/>
<feColorMatrix type="matrix" values="0 0 0 0 1 0 0 0 0 1 0 0 0 0 1 0 0 0 0.25 0"/>
<feBlend mode="normal" in2="shape" result="effect1_innerShadow_124_2997"/>
</filter>
</defs>
</svg>
